<svg xmlns="http://www.w3.org/2000/svg" xmlns:xlink="http://www.w3.org/1999/xlink" viewBox="0 0 629.8 192.27"><defs><style>.cls-1{opacity:0.35;}.cls-2{fill:url(#Degradado_sin_nombre_12);}</style><linearGradient id="Degradado_sin_nombre_12" x1="342.04" y1="-279.31" x2="534.31" y2="-279.31" gradientTransform="matrix(0, -1, -1, 0, 35.59, 534.31)" gradientUnits="userSpaceOnUse"><stop offset="0" stop-color="#402053"/><stop offset="1" stop-color="#d0599d"/></linearGradient></defs><g id="Capa_2" data-name="Capa 2"><g id="Background"><g class="cls-1"><path class="cls-2" d="M525.64,138.67l-18.72,17.65v35.53a.44.44,0,0,0,.88,0V156.67L526.52,139l0-26a3,3,0,0,0,2.86-3c.06-4.06-6.65-4.06-6.59,0a3,3,0,0,0,2.84,3ZM432.25,94.85v35.34l19,17.92h18.36v43.74a.45.45,0,0,0,.89,0V147.27H451.62l-18.49-17.43v-35a.43.43,0,0,0-.44-.42A.43.43,0,0,0,432.25,94.85Zm46.68,44,0,53a.45.45,0,0,0,.89,0l0-52.8,28-26.51V60.07a3,3,0,0,0,2.88-3c.06-4.07-6.65-4.07-6.59,0a2.94,2.94,0,0,0,2.83,3v52.11l-28,26.52ZM290,138.67l-18.73,17.65v35.53a.45.45,0,0,0,.89,0V156.67L290.9,139l0-25.63a2.94,2.94,0,0,0,2.85-3c.07-4.07-6.65-4.07-6.58,0a2.94,2.94,0,0,0,2.85,3Zm48.91,8.83L301.6,182.87v9a.43.43,0,0,0,.44.42.43.43,0,0,0,.44-.42v-8.63l37.34-35.37V112.18L321.15,94.55V59.66a3,3,0,0,0,3-3c.07-4.06-6.65-4.06-6.58,0a2.93,2.93,0,0,0,2.72,3V94.9l18.67,17.63Zm33.68-35.35-28,26.53v18l9.31,8.76,0,26.36a.43.43,0,0,0,.44.42h0a.43.43,0,0,0,.44-.42V165.14l-9.31-8.76V139l28-26.53v-.18l-.05-43.57a3,3,0,0,0,2.9-3c.06-4.07-6.65-4.07-6.59,0a2.94,2.94,0,0,0,2.8,3Zm41,26.52-9.34,8.83v44.35a.43.43,0,0,0,.44.42.43.43,0,0,0,.44-.42v-44L414.5,139V113.38a2.94,2.94,0,0,0,2.82-3c.07-4.07-6.64-4.07-6.58,0a3,3,0,0,0,2.87,3Zm-158.72,0,0,53.15a.45.45,0,0,0,.89,0l0-52.8,28-26.51V60.07a2.94,2.94,0,0,0,2.87-3c.07-4.07-6.65-4.07-6.58,0a2.94,2.94,0,0,0,2.82,3v52.11Zm-31.37-14L242.1,142.3v49.55a.44.44,0,0,0,.88,0V142l-18.57-17.56.05-36.06a3,3,0,0,0,2.9-3c.06-4.06-6.65-4.07-6.59,0a2.94,2.94,0,0,0,2.81,3ZM137,92.65l26.26,24.84V155h.44l52.08,0v36.82a.45.45,0,0,0,.89,0V154.19h-.45l-52.07,0v-37L137.87,92.3V43.36a3,3,0,0,0,2.86-3c.07-4.06-6.65-4.06-6.58,0a3,3,0,0,0,2.83,3Zm0,25.08V142l-13.1,12.33,0,37.5a.45.45,0,0,0,.89,0l0-37.15,13.1-12.33V116.89H98.42L98.5,56a2.94,2.94,0,0,0,2.8-3c.07-4.07-6.65-4.07-6.58,0a3,3,0,0,0,2.89,3l-.07,61.74ZM71.36,42.61,45,67.42V105l26.32,24.9v62a.43.43,0,0,0,.44.42.43.43,0,0,0,.44-.42V129.54l-26.31-24.9V67.78L72.24,43V6.07a3,3,0,0,0,2.89-3C75.2-1,68.48-1,68.55,3.05a2.94,2.94,0,0,0,2.81,3Zm248.74,86.7H294.57v62.54a.45.45,0,0,0,.89,0V130.16h26.86L302.8,112.52V64.27a2.94,2.94,0,0,0,2.85-3c.06-4.07-6.65-4.07-6.59,0a2.94,2.94,0,0,0,2.85,3v48.61l.14.12ZM187.65,110.78,226.88,148l0,43.9a.44.44,0,0,0,.88,0V147.6l-.13-.12L188.4,110.3V36.73a3,3,0,0,0,2.9-3c.06-4.07-6.65-4.07-6.59,0a2.94,2.94,0,0,0,2.81,3v73.94ZM557.38,80.33l39.24,37.17,0,74.35a.43.43,0,0,0,.44.42.43.43,0,0,0,.44-.42l0-74.7L558.14,79.86V6.12a3,3,0,0,0,2.85-3c.06-4.06-6.65-4.06-6.59,0a3,3,0,0,0,2.85,3V80.21ZM531,81.05l-.05,36.41,26.33,24.84v49.55a.45.45,0,0,0,.89,0V142L531.8,117.11,531.86,81a2.93,2.93,0,0,0,2.75-3C534.67,74,528,74,528,78A3,3,0,0,0,531,81.05Zm76.29-24.12a3,3,0,0,0,2.93,3v26.1l18.72,17.64v26.1L610.2,147.5v44.35a.45.45,0,0,0,.89,0v-44l18.71-17.69V103.35L611.08,85.71V59.94a2.93,2.93,0,0,0,2.76-3C613.91,52.87,607.19,52.87,607.26,56.93ZM75,83.88a2.93,2.93,0,0,0,2.79,3l.06,43.64,9,8.5v17.7l9.31,8.76,0,26.36a.43.43,0,0,0,.44.42.43.43,0,0,0,.44-.42V165.14l-9.31-8.76v-17.7l-9-8.5,0-43.28a3,3,0,0,0,2.9-3C81.67,79.81,75,79.81,75,83.88ZM0,92.18a3,3,0,0,0,2.83,3v35.23l19,0L40.2,147.87v44a.44.44,0,0,0,.88,0V147.52L22.14,129.61l-18.42,0V95.2a3,3,0,0,0,2.87-3C6.65,88.12-.06,88.11,0,92.18Zm429.41-.82c-.06,4.07,6.65,4.07,6.58,0S429.35,87.3,429.41,91.36ZM377.24,77.65a3,3,0,0,0,2.87,3v36.8l13.15,12.42v62a.45.45,0,0,0,.89,0V129.54L381,117.12V80.66a3,3,0,0,0,2.83-3C383.89,73.58,377.18,73.58,377.24,77.65Z"/></g></g></g></svg>