<svg xmlns="http://www.w3.org/2000/svg" xmlns:xlink="http://www.w3.org/1999/xlink" viewBox="0 0 629.8 192.27"><defs><style>.cls-1{fill:url(#Degradado_sin_nombre_12);}</style><linearGradient id="Degradado_sin_nombre_12" x1="199.17" y1="-430.43" x2="391.44" y2="-430.43" gradientTransform="translate(745.33 391.44) rotate(-90)" gradientUnits="userSpaceOnUse"><stop offset="0" stop-color="#402053"/><stop offset="1" stop-color="#d0599d"/></linearGradient></defs><g id="Capa_2" data-name="Capa 2"><g id="Background"><path class="cls-1" d="M104.2,113.06a3,3,0,0,0,2.84-3c.06-4.06-6.65-4.06-6.59,0a3,3,0,0,0,2.86,3l0,26L122,156.67v35.18a.43.43,0,0,0,.44.42.43.43,0,0,0,.44-.42V156.32l-18.72-17.65Zm92.91-18.63a.44.44,0,0,0-.45.42v35l-18.48,17.43H159.3v44.58a.43.43,0,0,0,.44.42.43.43,0,0,0,.44-.42V148.11h18.37l19-17.92V94.85A.43.43,0,0,0,197.11,94.43ZM150.86,138.7l-28-26.52V60.07a3,3,0,0,0,2.83-3c.06-4.07-6.65-4.07-6.59,0a2.94,2.94,0,0,0,2.88,3v52.47l28,26.51,0,52.8a.43.43,0,0,0,.44.42.43.43,0,0,0,.44-.42l0-53Zm189-25.31a2.94,2.94,0,0,0,2.85-3c.07-4.07-6.65-4.07-6.58,0a2.94,2.94,0,0,0,2.84,3l0,25.63,18.72,17.65v35.18a.44.44,0,0,0,.88,0V156.32l-18.72-17.65Zm-49-.86L309.53,94.9V59.64a2.93,2.93,0,0,0,2.73-3c.06-4.06-6.65-4.06-6.59,0a3,3,0,0,0,3,3V94.55L290,112.18v35.67l37.34,35.37v8.63a.43.43,0,0,0,.44.42.43.43,0,0,0,.44-.42v-9L290.86,147.5ZM257.24,68.74a3,3,0,0,0,2.8-3c.06-4.07-6.65-4.07-6.59,0a3,3,0,0,0,2.9,3l-.05,43.57v.18l28,26.53v17.35L275,165.14l0,26.71a.44.44,0,0,0,.45.42h0a.43.43,0,0,0,.44-.42V165.49l9.32-8.76v-18l-28-26.53Zm-41.06,44.65a3,3,0,0,0,2.88-3c.06-4.07-6.65-4.07-6.59,0a3,3,0,0,0,2.83,3V139l9.35,8.83v44a.44.44,0,0,0,.88,0V147.5l-9.35-8.83Zm130.74-1.21V60.07a2.94,2.94,0,0,0,2.83-3c.06-4.07-6.65-4.07-6.58,0a2.94,2.94,0,0,0,2.87,3v52.47l28,26.51,0,52.8a.45.45,0,0,0,.89,0l0-53.15Zm59.3-23.86a2.94,2.94,0,0,0,2.81-3c.06-4.07-6.65-4.06-6.59,0a3,3,0,0,0,2.9,3l.05,36.06L386.82,142v49.9a.43.43,0,0,0,.44.42.43.43,0,0,0,.44-.42V142.3l18.58-17.56Zm86.59-45a3,3,0,0,0,2.84-3c.06-4.06-6.65-4.06-6.59,0a3,3,0,0,0,2.87,3V92.3l-26.26,24.83v37l-52.08,0h-.44v37.66a.45.45,0,0,0,.89,0V155l52.07,0h.45v-37.5l26.25-24.84Zm39.45,74.37L532.18,56a3,3,0,0,0,2.9-3c.06-4.07-6.65-4.07-6.59,0a2.94,2.94,0,0,0,2.81,3l.07,60.91H491.93v25.48L505,154.7l0,37.15a.43.43,0,0,0,.44.42.43.43,0,0,0,.44-.42l0-37.5L492.81,142V117.73ZM558.44,6.06a2.94,2.94,0,0,0,2.81-3c.06-4.07-6.65-4.07-6.59,0a3,3,0,0,0,2.9,3V43l26.33,24.81v36.86l-26.32,24.9v62.31a.45.45,0,0,0,.89,0v-62L584.78,105V67.42L558.44,42.61ZM327.75,113l.14-.12V64.27a3,3,0,0,0,2.85-3c.06-4.07-6.65-4.07-6.59,0a2.94,2.94,0,0,0,2.85,3v48.25l-19.52,17.64h26.86v61.69a.45.45,0,0,0,.89,0V129.31H309.7Zm114.53-2.34V36.72a3,3,0,0,0,2.81-3c.06-4.07-6.65-4.07-6.59,0a3,3,0,0,0,2.9,3V110.3l-39.24,37.18-.13.12,0,44.25a.45.45,0,0,0,.89,0l0-43.9,39.23-37.17ZM72.54,80.21V6.12a3,3,0,0,0,2.85-3C75.46-1,68.75-1,68.81,3.1a3,3,0,0,0,2.85,3V79.86L32.3,117.15l0,74.7a.43.43,0,0,0,.44.42.43.43,0,0,0,.44-.42l0-74.35L72.41,80.33ZM101.77,78c.07-4.07-6.65-4.07-6.58,0a2.93,2.93,0,0,0,2.75,3l0,36.08L71.66,142v49.9a.43.43,0,0,0,.44.42.43.43,0,0,0,.44-.42V142.3l26.34-24.84,0-36.41A3,3,0,0,0,101.77,78Zm92,13.33c-.06,4.07,6.65,4.07,6.59,0S193.74,87.3,193.8,91.36ZM16,56.93a2.94,2.94,0,0,0,2.77,3V85.71L0,103.35v26.81l18.71,17.69v44a.43.43,0,0,0,.44.42.43.43,0,0,0,.44-.42V147.5L.89,129.8V103.7L19.61,86.06V60a3,3,0,0,0,2.93-3C22.6,52.87,15.89,52.87,16,56.93ZM548.19,83.88a3,3,0,0,0,2.91,3L551,130.18l-9,8.5v17.7l-9.31,8.76,0,26.71a.45.45,0,0,0,.89,0V165.49l9.32-8.76V139l9-8.5L552,86.89a2.94,2.94,0,0,0,2.8-3C554.84,79.81,548.13,79.81,548.19,83.88Zm75,8.3a3,3,0,0,0,2.87,3v34.39l-18.42,0-18.94,17.91v44.33a.43.43,0,0,0,.44.42.43.43,0,0,0,.44-.42v-44L608,130.45l19,0V95.2a3,3,0,0,0,2.83-3C629.86,88.11,623.15,88.12,623.21,92.18ZM246,77.65a3,3,0,0,0,2.83,3v36.46l-13.15,12.42v62.31a.43.43,0,0,0,.44.42.43.43,0,0,0,.44-.42v-62l13.16-12.42V80.67a3,3,0,0,0,2.87-3C252.62,73.58,245.91,73.58,246,77.65Z"/></g></g></svg>